<svg xmlns="http://www.w3.org/2000/svg" width="50" height="50" viewBox="0 0 50 50">
<g fill="none" fill-rule="evenodd">
  <rect width="50" height="50" fill="#F7FAFE" fill-rule="nonzero"/>
  <path fill="#FFF" d="M0,25 C1.69088438e-15,38.8071187 11.1928813,50 25,50 C38.8071187,50 50,38.8071187 50,25 C50,11.1928813 38.8071187,8.45442189e-16 25,0 C11.1928813,-8.45442189e-16 1.69088438e-15,11.1928813 0,25 Z"/>
  <path fill="#BDDBFF" fill-rule="nonzero" d="M3.43997706,4.75775771 C3.14342079,4.75775771 2.9211871,4.70472258 2.77290896,4.59883584 C2.62463082,4.4929491 2.51874409,4.36595842 2.45524875,4.21768029 C2.37046595,4.04829821 2.32825806,3.85762867 2.32825806,3.6458552 L2.32825806,1.54922437 C2.32825806,1.14678136 2.407719,0.845086738 2.56645735,0.643773477 C2.72537921,0.442643728 2.90008315,0.289043728 3.09056918,0.183156989 C3.32344659,0.0772702509 3.57761147,0.0242351254 3.8530638,0.0242351254 L16.1471197,0.0242351254 C16.4223885,0.0242351254 16.6765534,0.0772702509 16.9096143,0.183156989 C17.1002839,0.289043728 17.2749878,0.442643728 17.4337262,0.643773477 C17.592648,0.844903226 17.6719254,1.14678136 17.6719254,1.54922437 L17.6719254,3.6458552 C17.6719254,3.85762867 17.6295341,4.04829821 17.5449348,4.21768029 C17.4814394,4.36595842 17.3808746,4.4929491 17.2430566,4.59883584 C17.1052387,4.70472258 16.8883269,4.75775771 16.5917706,4.75775771 L3.43997706,4.75775771 Z M19.99079,22.4839685 C19.99079,22.9499068 19.9060072,23.3734538 19.7366251,23.7546093 C19.588347,24.0722695 19.3607914,24.3581821 19.0535914,24.612347 C18.7465749,24.8665118 18.3070624,24.9935025 17.7352373,24.9935025 L2.29614337,24.9935025 C1.70321434,24.9935025 1.25837993,24.8665118 0.961823656,24.612347 C0.665267384,24.3581821 0.443033692,24.0722695 0.294755556,23.7546093 C0.125373477,23.3734538 0.0299469534,22.9499068 0.00884301075,22.4839685 L0.00884301075,10.6028158 C0.00884301075,9.904 0.135833692,9.40631398 0.389998566,9.10975771 C0.644163441,8.81320143 0.87704086,8.55903656 1.08881434,8.34726308 L3.34436703,6.25063226 L17.0997333,6.25063226 L18.9104516,8.34726308 C19.1222251,8.55903656 19.355286,8.81320143 19.6092674,9.10975771 C19.8634323,9.40631398 19.9904229,9.904 19.9904229,10.6028158 L19.9904229,22.4839685 L19.99079,22.4839685 Z M15.0352172,14.2879312 L11.6996932,14.2879312 L11.6996932,10.9206595 L8.30049032,10.9206595 L8.30049032,14.2879312 L4.96496631,14.2879312 L4.96496631,17.6871341 L8.30049032,17.6871341 L8.30049032,21.0226581 L11.6996932,21.0226581 L11.6996932,17.6871341 L15.0352172,17.6871341 L15.0352172,14.2879312 Z" transform="translate(15 12)"/>
</g>
</svg>
